<?xml version="1.0" encoding="UTF-8" standalone="no"?>
<!-- Created with Inkscape (http://www.inkscape.org/) -->

<svg
   xmlns:dc="http://purl.org/dc/elements/1.1/"
   xmlns:cc="http://creativecommons.org/ns#"
   xmlns:rdf="http://www.w3.org/1999/02/22-rdf-syntax-ns#"
   xmlns:svg="http://www.w3.org/2000/svg"
   xmlns="http://www.w3.org/2000/svg"
   xmlns:sodipodi="http://sodipodi.sourceforge.net/DTD/sodipodi-0.dtd"
   xmlns:inkscape="http://www.inkscape.org/namespaces/inkscape"
   width="197.55556mm"
   height="98.965172mm"
   viewBox="0 0 700.00001 350.66399"
   id="svg16902"
   version="1.1"
   inkscape:version="0.91 r13725"
   sodipodi:docname="logo-black.svg">
  <defs
     id="defs16904" />
  <sodipodi:namedview
     id="base"
     pagecolor="#ffffff"
     bordercolor="#666666"
     borderopacity="1.0"
     inkscape:pageopacity="0.0"
     inkscape:pageshadow="2"
     inkscape:zoom="0.17230475"
     inkscape:cx="781.24989"
     inkscape:cy="449.12133"
     inkscape:document-units="px"
     inkscape:current-layer="g17477"
     showgrid="false"
     inkscape:window-width="1276"
     inkscape:window-height="756"
     inkscape:window-x="0"
     inkscape:window-y="0"
     inkscape:window-maximized="0"
     inkscape:snap-global="true"
     inkscape:snap-bbox="true"
     inkscape:bbox-paths="true"
     inkscape:bbox-nodes="true"
     inkscape:snap-bbox-edge-midpoints="true"
     inkscape:snap-bbox-midpoints="true"
     fit-margin-top="0"
     fit-margin-left="0"
     fit-margin-right="0"
     fit-margin-bottom="0" />
  <metadata
     id="metadata16907">
    <rdf:RDF>
      <cc:Work
         rdf:about="">
        <dc:format>image/svg+xml</dc:format>
        <dc:type
           rdf:resource="http://purl.org/dc/dcmitype/StillImage" />
        <dc:title></dc:title>
      </cc:Work>
    </rdf:RDF>
  </metadata>
  <g
     inkscape:label="Camada 1"
     inkscape:groupmode="layer"
     id="layer1"
     transform="translate(1712.9228,-802.75548)">
    <g
       transform="matrix(1.25,0,0,-1.25,-911.56357,1138.039)"
       inkscape:label="logo"
       id="g17477">
      <g
         transform="matrix(1.0042026,0,0,1.0042026,-18.254902,-706.66607)"
         id="g19865"
         style="fill:#666666;fill-opacity:1"
         inkscape:export-filename="/Users/fabiorocha/Sites/suap/svg/favicon.png"
         inkscape:export-xdpi="33.42857"
         inkscape:export-ydpi="33.42857">
        <g
           inkscape:export-ydpi="33.42857"
           inkscape:export-xdpi="33.42857"
           inkscape:export-filename="/Users/fabiorocha/Sites/suap/svg/favicon.png"
           style="fill:#666666;fill-opacity:1"
           id="g19867"
           transform="matrix(1.3374883,0,0,1.3374883,-699.4266,182.88789)">
          <g
             style="fill:#666666;fill-opacity:1"
             id="g19869">
            <g
               style="fill:#666666;fill-opacity:1"
               id="g19871">
              <g
                 style="fill:#666666;fill-opacity:1"
                 id="g19873">
                <path
                   d="m 62.277,555.677 c 0,-13.419 9.652,-24.72 30.37,-32.253 l 0,0 c 15.068,-5.65 20.953,-10.833 20.953,-20.718 l 0,0 c 0,-9.654 -7.062,-16.951 -21.894,-16.951 l 0,0 c -10.36,0 -21.189,4.236 -27.545,8.002 l 0,0 -4.945,-15.536 c 8.005,-4.709 19.54,-8.005 32.019,-8.005 l 0,0 c 26.604,0 42.377,14.124 42.377,34.373 l 0,0 c 0,16.951 -10.359,26.837 -29.899,34.138 l 0,0 c -14.833,5.884 -21.424,10.122 -21.424,19.539 l 0,0 c 0,8.477 6.591,15.539 18.834,15.539 l 0,0 c 10.594,0 18.835,-4.002 23.307,-6.594 l 0,0 4.945,14.834 c -6.122,4.001 -16.245,7.063 -27.782,7.063 l 0,0 c -24.248,0 -39.316,-15.068 -39.316,-33.431"
                   style="fill:#666666;fill-opacity:1;stroke:none"
                   id="path19875"
                   inkscape:connector-curvature="0" />
              </g>
            </g>
          </g>
        </g>
        <g
           inkscape:export-ydpi="33.42857"
           inkscape:export-xdpi="33.42857"
           inkscape:export-filename="/Users/fabiorocha/Sites/suap/svg/favicon.png"
           style="fill:#666666;fill-opacity:1"
           id="g19877"
           transform="matrix(1.3374883,0,0,1.3374883,-699.4266,182.88789)">
          <g
             style="fill:#666666;fill-opacity:1"
             id="g19879">
            <g
               style="fill:#666666;fill-opacity:1"
               id="g19881">
              <g
                 style="fill:#666666;fill-opacity:1"
                 id="g19883">
                <path
                   d="m 223.074,586.517 0,-69.687 c 0,-4.002 -0.707,-7.769 -1.884,-10.593 l 0,0 c -3.765,-9.418 -13.419,-19.07 -27.31,-19.07 l 0,0 c -18.599,0 -25.425,14.832 -25.425,36.493 l 0,0 0,62.857 -20.717,0 0,-66.625 c 0,-39.788 21.423,-49.913 39.315,-49.913 l 0,0 c 20.247,0 32.49,12.01 37.669,21.19 l 0,0 0.471,0 1.176,-18.599 18.363,0 c -0.705,8.946 -0.941,19.304 -0.941,31.312 l 0,0 0,82.635 -20.717,0 z"
                   style="fill:#666666;fill-opacity:1;stroke:none"
                   id="path19885"
                   inkscape:connector-curvature="0" />
              </g>
            </g>
          </g>
        </g>
        <g
           inkscape:export-ydpi="33.42857"
           inkscape:export-xdpi="33.42857"
           inkscape:export-filename="/Users/fabiorocha/Sites/suap/svg/favicon.png"
           style="fill:#666666;fill-opacity:1"
           id="g19887"
           transform="matrix(1.3374883,0,0,1.3374883,-699.4266,182.88789)">
          <g
             style="fill:#666666;fill-opacity:1"
             id="g19889">
            <g
               style="fill:#666666;fill-opacity:1"
               id="g19891">
              <g
                 style="fill:#666666;fill-opacity:1"
                 id="g19893">
                <path
                   d="m 265.451,579.219 4.709,-13.89 c 8.003,5.416 19.068,8.476 29.899,8.476 l 0,0 c 23.306,0.235 25.898,-16.951 25.898,-26.368 l 0,0 0,-2.356 c -44.027,0.236 -68.511,-14.831 -68.511,-42.375 l 0,0 c 0,-16.483 11.772,-32.727 34.844,-32.727 l 0,0 c 16.243,0 28.723,8.007 34.843,16.952 l 0,0 0.706,0 1.884,-14.361 18.599,0 c -1.177,7.77 -1.648,17.421 -1.648,27.309 l 0,0 0,42.614 c 0,22.836 -8.477,46.615 -43.555,46.615 l 0,0 c -14.36,0 -28.251,-4.002 -37.668,-9.889 m 12.712,-74.162 c 0,22.133 25.663,26.136 48.264,25.665 l 0,0 0,-19.778 c 0,-2.119 -0.236,-4.472 -0.943,-6.59 l 0,0 c -3.294,-9.654 -12.947,-19.07 -28.015,-19.07 l 0,0 c -10.357,0 -19.306,6.121 -19.306,19.773"
                   style="fill:#666666;fill-opacity:1;stroke:none"
                   id="path19895"
                   inkscape:connector-curvature="0" />
              </g>
            </g>
          </g>
        </g>
        <g
           id="g19897"
           transform="matrix(1.3374883,0,0,1.3374883,-699.4266,182.88789)"
           style="fill:#666666;fill-opacity:1">
          <g
             id="g19899"
             style="fill:#666666;fill-opacity:1">
            <g
               inkscape:export-ydpi="33.42857"
               inkscape:export-xdpi="33.42857"
               inkscape:export-filename="/Users/fabiorocha/Sites/suap/svg/favicon.png"
               style="fill:#666666;fill-opacity:1"
               id="g19901">
              <g
                 style="fill:#666666;fill-opacity:1"
                 id="g19903">
                <path
                   d="m 387.403,566.977 -0.472,0 -1.177,19.54 -18.598,0 c 0.705,-10.828 0.94,-22.6 0.94,-37.197 l 0,0 0,-169.079 20.718,0 0,107.633 0.472,0 c 6.826,-11.301 19.775,-17.895 35.077,-17.895 l 0,0 c 26.604,0 51.796,20.247 51.796,61.214 l 0,0 c 0,34.606 -20.717,57.915 -48.496,57.915 l 0,0 c -18.366,0 -32.02,-8.005 -40.26,-22.131 m 2.355,-56.502 c -0.708,2.589 -0.944,5.651 -0.944,8.474 l 0,0 0,19.778 c 0,2.587 0.707,5.65 1.178,8.238 l 0,0 c 4.001,15.773 17.422,25.663 31.547,25.663 l 0,0 c 21.896,0 33.667,-19.541 33.667,-42.378 l 0,0 c 0,-26.133 -12.713,-44.027 -34.609,-44.027 l 0,0 c -14.596,0 -27.309,9.889 -30.839,24.252"
                   style="fill:#666666;fill-opacity:1;stroke:none"
                   id="path19905"
                   inkscape:connector-curvature="0" />
              </g>
            </g>
          </g>
        </g>
      </g>
    </g>
  </g>
</svg>
