<?xml version="1.0" encoding="UTF-8" standalone="no"?>
<!-- Created with Inkscape (http://www.inkscape.org/) -->

<svg
   xmlns:dc="http://purl.org/dc/elements/1.1/"
   xmlns:cc="http://creativecommons.org/ns#"
   xmlns:rdf="http://www.w3.org/1999/02/22-rdf-syntax-ns#"
   xmlns:svg="http://www.w3.org/2000/svg"
   xmlns="http://www.w3.org/2000/svg"
   xmlns:sodipodi="http://sodipodi.sourceforge.net/DTD/sodipodi-0.dtd"
   xmlns:inkscape="http://www.inkscape.org/namespaces/inkscape"
   width="147.08823mm"
   height="76.347038mm"
   viewBox="0 0 521.17875 270.521"
   id="svg16902"
   version="1.1"
   inkscape:version="0.91 r13725"
   sodipodi:docname="logo.svg">
  <defs
     id="defs16904">
    <clipPath
       id="clipPath17811"
       clipPathUnits="userSpaceOnUse">
      <path
         inkscape:connector-curvature="0"
         id="path17813"
         d="m 0,651.97 992.13,0 L 992.13,0 0,0 0,651.97 Z" />
    </clipPath>
  </defs>
  <sodipodi:namedview
     id="base"
     pagecolor="#ffffff"
     bordercolor="#666666"
     borderopacity="1.0"
     inkscape:pageopacity="0.0"
     inkscape:pageshadow="2"
     inkscape:zoom="0.075785828"
     inkscape:cx="-483.71822"
     inkscape:cy="169.89812"
     inkscape:document-units="px"
     inkscape:current-layer="g17477"
     showgrid="false"
     inkscape:window-width="1276"
     inkscape:window-height="756"
     inkscape:window-x="0"
     inkscape:window-y="0"
     inkscape:window-maximized="0"
     inkscape:snap-global="true"
     inkscape:snap-bbox="true"
     inkscape:bbox-paths="true"
     inkscape:bbox-nodes="true"
     inkscape:snap-bbox-edge-midpoints="true"
     inkscape:snap-bbox-midpoints="true"
     fit-margin-top="0"
     fit-margin-left="0"
     fit-margin-right="0"
     fit-margin-bottom="0" />
  <metadata
     id="metadata16907">
    <rdf:RDF>
      <cc:Work
         rdf:about="">
        <dc:format>image/svg+xml</dc:format>
        <dc:type
           rdf:resource="http://purl.org/dc/dcmitype/StillImage" />
        <dc:title></dc:title>
      </cc:Work>
    </rdf:RDF>
  </metadata>
  <g
     inkscape:label="Camada 1"
     inkscape:groupmode="layer"
     id="layer1"
     transform="translate(247.54232,-404.89275)">
    <g
       transform="matrix(1.25,0,0,-1.25,-911.56357,1138.039)"
       inkscape:label="logo"
       id="g17477">
      <g
         id="g17719"
         style="fill:#666666;fill-opacity:1">
        <g
           id="g17721"
           style="fill:#666666;fill-opacity:1">
          <g
             id="g17727"
             style="fill:#666666;fill-opacity:1">
            <g
               id="g17729"
               style="fill:#666666;fill-opacity:1">
              <path
                 inkscape:connector-curvature="0"
                 id="path17739"
                 style="fill:#666666;fill-opacity:1;stroke:none"
                 d="m 534.277,553.088 c 0,-13.42 9.651,-24.721 30.369,-32.254 l 0,0 c 15.069,-5.651 20.953,-10.832 20.953,-20.718 l 0,0 c 0,-9.653 -7.061,-16.951 -21.893,-16.951 l 0,0 c -10.36,0 -21.19,4.235 -27.546,8.002 l 0,0 -4.943,-15.535 c 8.004,-4.71 19.539,-8.006 32.017,-8.006 l 0,0 c 26.603,0 42.377,14.125 42.377,34.373 l 0,0 c 0,16.951 -10.358,26.837 -29.898,34.137 l 0,0 c -14.833,5.885 -21.424,10.123 -21.424,19.541 l 0,0 c 0,8.475 6.591,15.539 18.834,15.539 l 0,0 c 10.594,0 18.835,-4.003 23.308,-6.594 l 0,0 4.944,14.833 c -6.122,4.001 -16.245,7.062 -27.782,7.062 l 0,0 c -24.248,0 -39.316,-15.066 -39.316,-33.429" />
            </g>
          </g>
        </g>
      </g>
      <g
         id="g17741"
         style="fill:#666666;fill-opacity:1">
        <g
           id="g17743"
           style="fill:#666666;fill-opacity:1">
          <g
             id="g17749"
             style="fill:#666666;fill-opacity:1">
            <g
               id="g17751"
               style="fill:#666666;fill-opacity:1">
              <path
                 inkscape:connector-curvature="0"
                 id="path17761"
                 style="fill:#666666;fill-opacity:1;stroke:none"
                 d="m 695.074,583.928 0,-69.688 c 0,-4.002 -0.707,-7.77 -1.883,-10.593 l 0,0 c -3.768,-9.417 -13.419,-19.07 -27.311,-19.07 l 0,0 c -18.599,0 -25.425,14.832 -25.425,36.492 l 0,0 0,62.859 -20.718,0 0,-66.625 c 0,-39.788 21.425,-49.913 39.316,-49.913 l 0,0 c 20.245,0 32.49,12.008 37.668,21.189 l 0,0 0.472,0 1.176,-18.598 18.363,0 c -0.705,8.946 -0.941,19.303 -0.941,31.311 l 0,0 0,82.636 -20.717,0 z" />
            </g>
          </g>
        </g>
      </g>
      <g
         id="g17763"
         style="fill:#666666;fill-opacity:1">
        <g
           id="g17765"
           style="fill:#666666;fill-opacity:1">
          <g
             id="g17771"
             style="fill:#666666;fill-opacity:1">
            <g
               id="g17773"
               style="fill:#666666;fill-opacity:1">
              <path
                 inkscape:connector-curvature="0"
                 id="path17783"
                 style="fill:#666666;fill-opacity:1;stroke:none"
                 d="m 737.451,576.63 4.709,-13.892 c 8.004,5.417 19.068,8.478 29.899,8.478 l 0,0 c 23.306,0.235 25.898,-16.951 25.898,-26.37 l 0,0 0,-2.355 c -44.026,0.237 -68.512,-14.831 -68.512,-42.375 l 0,0 c 0,-16.482 11.772,-32.726 34.846,-32.726 l 0,0 c 16.242,0 28.722,8.005 34.842,16.95 l 0,0 0.707,0 1.883,-14.359 18.598,0 c -1.175,7.769 -1.647,17.419 -1.647,27.308 l 0,0 0,42.615 c 0,22.834 -8.477,46.613 -43.555,46.613 l 0,0 c -14.36,0 -28.252,-4.001 -37.668,-9.887 m 12.713,-74.162 c 0,22.133 25.662,26.135 48.264,25.664 l 0,0 0,-19.778 c 0,-2.118 -0.237,-4.471 -0.943,-6.591 l 0,0 c -3.295,-9.653 -12.948,-19.07 -28.016,-19.07 l 0,0 c -10.358,0 -19.305,6.122 -19.305,19.775" />
            </g>
          </g>
        </g>
      </g>
      <g
         id="g17785"
         style="fill:#666666;fill-opacity:1">
        <g
           id="g17787"
           style="fill:#666666;fill-opacity:1">
          <g
             id="g17793"
             style="fill:#666666;fill-opacity:1">
            <g
               id="g17795"
               style="fill:#666666;fill-opacity:1">
              <path
                 inkscape:connector-curvature="0"
                 id="path17805"
                 style="fill:#666666;fill-opacity:1;stroke:none"
                 d="m 859.402,564.387 -0.471,0 -1.177,19.541 -18.598,0 c 0.704,-10.829 0.94,-22.602 0.94,-37.198 l 0,0 0,-169.078 20.718,0 0,107.632 0.471,0 c 6.826,-11.301 19.775,-17.894 35.078,-17.894 l 0,0 c 26.604,0 51.797,20.247 51.797,61.213 l 0,0 c 0,34.607 -20.719,57.914 -48.498,57.914 l 0,0 c -18.365,0 -32.02,-8.004 -40.26,-22.13 m 2.356,-56.502 c -0.707,2.589 -0.944,5.651 -0.944,8.475 l 0,0 0,19.776 c 0,2.589 0.707,5.651 1.178,8.239 l 0,0 c 4.001,15.774 17.422,25.663 31.547,25.663 l 0,0 c 21.894,0 33.666,-19.541 33.666,-42.378 l 0,0 c 0,-26.132 -12.713,-44.026 -34.608,-44.026 l 0,0 c -14.597,0 -27.308,9.888 -30.839,24.251" />
            </g>
          </g>
        </g>
      </g>
      <g
         id="g17807"
         style="fill:#666666;fill-opacity:1">
        <g
           clip-path="url(#clipPath17811)"
           id="g17809"
           style="fill:#666666;fill-opacity:1">
          <g
             transform="translate(549.4004,418.8584)"
             id="g17815"
             style="fill:#666666;fill-opacity:1">
            <path
               inkscape:connector-curvature="0"
               id="path17817"
               style="fill:#666666;fill-opacity:1;fill-rule:nonzero;stroke:none"
               d="m 0,0 c 0.986,-0.584 2.667,-1.241 4.274,-1.241 2.302,0 3.398,1.132 3.398,2.63 0,1.535 -0.913,2.339 -3.252,3.215 -3.215,1.169 -4.713,2.922 -4.713,5.005 0,2.85 2.338,5.188 6.102,5.188 1.791,0 3.361,-0.474 4.311,-1.096 L 9.353,11.399 c -0.695,0.403 -1.973,1.024 -3.617,1.024 -1.9,0 -2.923,-1.097 -2.923,-2.411 0,-1.462 1.023,-2.119 3.325,-3.033 3.032,-1.133 4.639,-2.667 4.639,-5.298 0,-3.142 -2.447,-5.334 -6.576,-5.334 -1.936,0 -3.726,0.511 -4.969,1.242 L 0,0 Z" />
          </g>
          <path
             inkscape:connector-curvature="0"
             id="path17819"
             style="fill:#666666;fill-opacity:1;fill-rule:nonzero;stroke:none"
             d="m 562.48,433.254 3.215,0 0,-17.684 -3.215,0 0,17.684 z m 1.536,2.995 c -1.17,0 -1.938,0.914 -1.938,1.974 0,1.131 0.805,2.008 2.01,2.008 1.17,0 1.973,-0.877 1.973,-2.008 0,-1.06 -0.767,-1.974 -2.01,-1.974 l -0.035,0 z" />
          <g
             transform="translate(568.7656,418.8584)"
             id="g17821"
             style="fill:#666666;fill-opacity:1">
            <path
               inkscape:connector-curvature="0"
               id="path17823"
               style="fill:#666666;fill-opacity:1;fill-rule:nonzero;stroke:none"
               d="m 0,0 c 0.986,-0.584 2.666,-1.241 4.273,-1.241 2.303,0 3.399,1.132 3.399,2.63 0,1.535 -0.914,2.339 -3.252,3.215 -3.215,1.169 -4.713,2.922 -4.713,5.005 0,2.85 2.338,5.188 6.102,5.188 1.789,0 3.361,-0.474 4.31,-1.096 L 9.353,11.399 c -0.695,0.403 -1.974,1.024 -3.619,1.024 -1.898,0 -2.921,-1.097 -2.921,-2.411 0,-1.462 1.023,-2.119 3.324,-3.033 3.033,-1.133 4.64,-2.667 4.64,-5.298 0,-3.142 -2.448,-5.334 -6.576,-5.334 -1.937,0 -3.726,0.511 -4.97,1.242 L 0,0 Z" />
          </g>
          <g
             transform="translate(585.7187,437.4922)"
             id="g17825"
             style="fill:#666666;fill-opacity:1">
            <path
               inkscape:connector-curvature="0"
               id="path17827"
               style="fill:#666666;fill-opacity:1;fill-rule:nonzero;stroke:none"
               d="m 0,0 0,-4.238 4.603,0 0,-2.449 -4.603,0 0,-9.499 c 0,-2.192 0.62,-3.434 2.41,-3.434 0.877,0 1.389,0.073 1.863,0.22 l 0.147,-2.449 c -0.621,-0.218 -1.607,-0.438 -2.85,-0.438 -1.498,0 -2.703,0.512 -3.47,1.351 -0.877,0.987 -1.243,2.558 -1.243,4.641 l 0,9.608 -2.74,0 0,2.449 2.74,0 0,3.251 L 0,0 Z" />
          </g>
          <g
             transform="translate(603.1094,426.1289)"
             id="g17829"
             style="fill:#666666;fill-opacity:1">
            <path
               inkscape:connector-curvature="0"
               id="path17831"
               style="fill:#666666;fill-opacity:1;fill-rule:nonzero;stroke:none"
               d="M 0,0 C 0.037,2.047 -0.84,5.226 -4.421,5.226 -7.709,5.226 -9.098,2.229 -9.354,0 L 0,0 Z m -9.39,-2.301 c 0.074,-4.311 2.814,-6.101 6.029,-6.101 2.302,0 3.726,0.401 4.896,0.913 l 0.584,-2.302 c -1.133,-0.512 -3.105,-1.133 -5.918,-1.133 -5.408,0 -8.695,3.617 -8.695,8.915 0,5.334 3.178,9.535 8.329,9.535 5.772,0 7.27,-5.078 7.27,-8.33 0,-0.657 -0.037,-1.132 -0.109,-1.497 l -12.386,0 z" />
          </g>
          <g
             transform="translate(608.3721,428.4678)"
             id="g17833"
             style="fill:#666666;fill-opacity:1">
            <path
               inkscape:connector-curvature="0"
               id="path17835"
               style="fill:#666666;fill-opacity:1;fill-rule:nonzero;stroke:none"
               d="m 0,0 c 0,1.863 -0.073,3.325 -0.146,4.786 l 2.813,0 0.146,-2.849 0.11,0 c 0.986,1.679 2.63,3.25 5.59,3.25 2.375,0 4.201,-1.46 4.968,-3.543 l 0.074,0 c 0.548,1.023 1.278,1.753 2.008,2.301 1.061,0.804 2.194,1.242 3.874,1.242 2.375,0 5.845,-1.534 5.845,-7.671 l 0,-10.413 -3.142,0 0,10.01 c 0,3.435 -1.279,5.445 -3.836,5.445 -1.864,0 -3.252,-1.353 -3.836,-2.887 -0.147,-0.476 -0.256,-1.06 -0.256,-1.608 l 0,-10.96 -3.143,0 0,10.631 C 11.069,0.548 9.828,2.558 7.38,2.558 5.407,2.558 3.909,0.95 3.397,-0.657 3.214,-1.133 3.142,-1.681 3.142,-2.229 l 0,-10.668 -3.142,0 L 0,0 Z" />
          </g>
          <g
             transform="translate(646.334,424.5947)"
             id="g17837"
             style="fill:#666666;fill-opacity:1">
            <path
               inkscape:connector-curvature="0"
               id="path17839"
               style="fill:#666666;fill-opacity:1;fill-rule:nonzero;stroke:none"
               d="m 0,0 c -3.508,0.073 -7.49,-0.548 -7.49,-3.981 0,-2.121 1.388,-3.071 2.996,-3.071 2.338,0 3.837,1.462 4.348,2.96 C -0.037,-3.764 0,-3.397 0,-3.069 L 0,0 Z m 3.143,-4.786 c 0,-1.534 0.072,-3.032 0.255,-4.238 l -2.886,0 -0.293,2.229 -0.11,0 c -0.949,-1.389 -2.885,-2.631 -5.406,-2.631 -3.581,0 -5.408,2.521 -5.408,5.078 0,4.276 3.8,6.614 10.632,6.577 l 0,0.366 c 0,1.461 -0.402,4.128 -4.019,4.092 -1.68,0 -3.398,-0.476 -4.64,-1.316 l -0.731,2.155 c 1.461,0.913 3.617,1.535 5.846,1.535 5.443,0 6.76,-3.69 6.76,-7.234 l 0,-6.613 z" />
          </g>
          <g
             transform="translate(673.5176,420.4297)"
             id="g17841"
             style="fill:#666666;fill-opacity:1">
            <path
               inkscape:connector-curvature="0"
               id="path17843"
               style="fill:#666666;fill-opacity:1;fill-rule:nonzero;stroke:none"
               d="m 0,0 c 0,-1.863 0.037,-3.471 0.146,-4.859 l -2.849,0 -0.184,2.886 -0.072,0 c -0.805,-1.424 -2.704,-3.288 -5.846,-3.288 -2.777,0 -6.101,1.572 -6.101,7.745 l 0,10.34 3.215,0 0,-9.755 c 0,-3.361 1.059,-5.663 3.945,-5.663 2.156,0 3.654,1.498 4.238,2.959 0.183,0.439 0.293,1.024 0.293,1.645 l 0,10.814 3.215,0 L 0,0 Z" />
          </g>
          <g
             transform="translate(677.0264,428.4678)"
             id="g17845"
             style="fill:#666666;fill-opacity:1">
            <path
               inkscape:connector-curvature="0"
               id="path17847"
               style="fill:#666666;fill-opacity:1;fill-rule:nonzero;stroke:none"
               d="m 0,0 c 0,1.863 -0.037,3.325 -0.146,4.786 l 2.849,0 0.183,-2.887 0.073,0 c 0.877,1.645 2.923,3.288 5.846,3.288 2.448,0 6.247,-1.46 6.247,-7.526 l 0,-10.558 -3.215,0 0,10.193 c 0,2.85 -1.059,5.262 -4.092,5.262 C 5.663,2.558 4.019,1.06 3.435,-0.73 3.288,-1.133 3.214,-1.717 3.214,-2.229 l 0,-10.668 -3.214,0 L 0,0 Z" />
          </g>
          <path
             inkscape:connector-curvature="0"
             id="path17849"
             style="fill:#666666;fill-opacity:1;fill-rule:nonzero;stroke:none"
             d="m 695.479,433.254 3.214,0 0,-17.684 -3.214,0 0,17.684 z m 1.533,2.995 c -1.169,0 -1.936,0.914 -1.936,1.974 0,1.131 0.803,2.008 2.01,2.008 1.168,0 1.973,-0.877 1.973,-2.008 0,-1.06 -0.768,-1.974 -2.01,-1.974 l -0.037,0 z" />
          <g
             transform="translate(732.0879,416.2285)"
             id="g17851"
             style="fill:#666666;fill-opacity:1">
            <path
               inkscape:connector-curvature="0"
               id="path17853"
               style="fill:#666666;fill-opacity:1;fill-rule:nonzero;stroke:none"
               d="m 0,0 c -0.841,-0.402 -2.704,-1.023 -5.078,-1.023 -5.335,0 -8.806,3.617 -8.806,9.024 0,5.443 3.727,9.426 9.499,9.426 1.901,0 3.58,-0.474 4.457,-0.949 l -0.73,-2.449 c -0.768,0.403 -1.973,0.841 -3.727,0.841 -4.055,0 -6.248,-3.032 -6.248,-6.686 0,-4.092 2.631,-6.613 6.139,-6.613 1.826,0 3.032,0.438 3.945,0.84 L 0,0 Z" />
          </g>
          <g
             transform="translate(743.3418,424.5947)"
             id="g17855"
             style="fill:#666666;fill-opacity:1">
            <path
               inkscape:connector-curvature="0"
               id="path17857"
               style="fill:#666666;fill-opacity:1;fill-rule:nonzero;stroke:none"
               d="m 0,0 c -3.508,0.073 -7.49,-0.548 -7.49,-3.981 0,-2.121 1.388,-3.071 2.996,-3.071 2.338,0 3.836,1.462 4.348,2.96 C -0.037,-3.764 0,-3.397 0,-3.069 L 0,0 Z m 3.142,-4.786 c 0,-1.534 0.073,-3.032 0.255,-4.238 l -2.886,0 -0.292,2.229 -0.11,0 c -0.95,-1.389 -2.886,-2.631 -5.407,-2.631 -3.581,0 -5.407,2.521 -5.407,5.078 0,4.276 3.799,6.614 10.631,6.577 l 0,0.366 c 0,1.461 -0.402,4.128 -4.018,4.092 -1.681,0 -3.398,-0.476 -4.64,-1.316 l -0.731,2.155 c 1.461,0.913 3.617,1.535 5.846,1.535 5.443,0 6.759,-3.69 6.759,-7.234 l 0,-6.613 z" />
          </g>
          <g
             transform="translate(761.8652,426.0566)"
             id="g17859"
             style="fill:#666666;fill-opacity:1">
            <path
               inkscape:connector-curvature="0"
               id="path17861"
               style="fill:#666666;fill-opacity:1;fill-rule:nonzero;stroke:none"
               d="m 0,0 c 0,0.438 -0.036,0.95 -0.146,1.388 -0.475,2.009 -2.229,3.69 -4.64,3.69 -3.325,0 -5.298,-2.923 -5.298,-6.795 0,-3.618 1.791,-6.577 5.225,-6.577 2.156,0 4.129,1.462 4.713,3.873 C -0.036,-4.02 0,-3.581 0,-3.069 L 0,0 Z m 3.216,15.454 0,-21.373 c 0,-1.571 0.036,-3.361 0.145,-4.567 l -2.885,0 -0.147,3.069 -0.073,0 c -0.986,-1.973 -3.106,-3.471 -5.992,-3.471 -4.274,0 -7.599,3.617 -7.599,8.988 -0.036,5.919 3.653,9.499 7.929,9.499 2.74,0 4.566,-1.279 5.334,-2.667 l 0.072,0 0,10.522 3.216,0 z" />
          </g>
          <g
             transform="translate(775.9336,417.5801)"
             id="g17863"
             style="fill:#666666;fill-opacity:1">
            <path
               inkscape:connector-curvature="0"
               id="path17865"
               style="fill:#666666;fill-opacity:1;fill-rule:nonzero;stroke:none"
               d="m 0,0 c 3.068,0 5.37,2.887 5.37,6.905 0,2.996 -1.499,6.759 -5.298,6.759 -3.763,0 -5.407,-3.507 -5.407,-6.869 C -5.335,2.923 -3.143,0 -0.037,0 L 0,0 Z m -0.146,-2.411 c -4.75,0 -8.477,3.507 -8.477,9.097 0,5.918 3.909,9.389 8.768,9.389 5.079,0 8.513,-3.689 8.513,-9.06 0,-6.577 -4.567,-9.426 -8.769,-9.426 l -0.035,0 z" />
          </g>
          <g
             transform="translate(804.7969,426.0566)"
             id="g17867"
             style="fill:#666666;fill-opacity:1">
            <path
               inkscape:connector-curvature="0"
               id="path17869"
               style="fill:#666666;fill-opacity:1;fill-rule:nonzero;stroke:none"
               d="m 0,0 c 0,0.438 -0.036,0.95 -0.146,1.388 -0.475,2.009 -2.229,3.69 -4.639,3.69 -3.326,0 -5.299,-2.923 -5.299,-6.795 0,-3.618 1.791,-6.577 5.225,-6.577 2.156,0 4.129,1.462 4.713,3.873 C -0.036,-4.02 0,-3.581 0,-3.069 L 0,0 Z m 3.216,15.454 0,-21.373 c 0,-1.571 0.036,-3.361 0.145,-4.567 l -2.885,0 -0.147,3.069 -0.073,0 c -0.986,-1.973 -3.106,-3.471 -5.992,-3.471 -4.274,0 -7.599,3.617 -7.599,8.988 -0.036,5.919 3.653,9.499 7.929,9.499 2.74,0 4.566,-1.279 5.334,-2.667 l 0.072,0 0,10.522 3.216,0 z" />
          </g>
          <g
             transform="translate(822.7363,426.1289)"
             id="g17871"
             style="fill:#666666;fill-opacity:1">
            <path
               inkscape:connector-curvature="0"
               id="path17873"
               style="fill:#666666;fill-opacity:1;fill-rule:nonzero;stroke:none"
               d="M 0,0 C 0.037,2.047 -0.84,5.226 -4.42,5.226 -7.709,5.226 -9.097,2.229 -9.353,0 L 0,0 Z m -9.389,-2.301 c 0.074,-4.311 2.813,-6.101 6.029,-6.101 2.301,0 3.726,0.401 4.895,0.913 l 0.584,-2.302 c -1.132,-0.512 -3.105,-1.133 -5.918,-1.133 -5.407,0 -8.695,3.617 -8.695,8.915 0,5.334 3.179,9.535 8.33,9.535 5.772,0 7.27,-5.078 7.27,-8.33 0,-0.657 -0.036,-1.132 -0.11,-1.497 l -12.385,0 z" />
          </g>
          <g
             transform="translate(544.9785,386.6514)"
             id="g17875"
             style="fill:#666666;fill-opacity:1">
            <path
               inkscape:connector-curvature="0"
               id="path17877"
               style="fill:#666666;fill-opacity:1;fill-rule:nonzero;stroke:none"
               d="m 0,0 c -3.508,0.073 -7.49,-0.549 -7.49,-3.982 0,-2.12 1.388,-3.07 2.996,-3.07 2.338,0 3.836,1.462 4.348,2.959 C -0.037,-3.764 0,-3.398 0,-3.069 L 0,0 Z m 3.142,-4.786 c 0,-1.534 0.073,-3.033 0.256,-4.238 l -2.886,0 -0.293,2.228 -0.11,0 c -0.95,-1.388 -2.886,-2.631 -5.407,-2.631 -3.581,0 -5.407,2.522 -5.407,5.079 0,4.275 3.799,6.613 10.633,6.577 l 0,0.365 c 0,1.461 -0.403,4.128 -4.02,4.092 -1.681,0 -3.398,-0.475 -4.64,-1.315 l -0.731,2.155 c 1.462,0.913 3.617,1.535 5.846,1.535 5.443,0 6.759,-3.69 6.759,-7.235 l 0,-6.612 z" />
          </g>
          <g
             transform="translate(563.5029,388.1123)"
             id="g17879"
             style="fill:#666666;fill-opacity:1">
            <path
               inkscape:connector-curvature="0"
               id="path17881"
               style="fill:#666666;fill-opacity:1;fill-rule:nonzero;stroke:none"
               d="m 0,0 c 0,0.438 -0.036,0.95 -0.146,1.389 -0.475,2.008 -2.228,3.69 -4.64,3.69 -3.324,0 -5.297,-2.924 -5.297,-6.796 0,-3.617 1.789,-6.577 5.224,-6.577 2.155,0 4.129,1.462 4.713,3.873 C -0.036,-4.019 0,-3.58 0,-3.068 L 0,0 Z m 3.215,15.455 0,-21.373 c 0,-1.571 0.037,-3.362 0.145,-4.567 l -2.884,0 -0.147,3.068 -0.073,0 c -0.986,-1.973 -3.106,-3.471 -5.992,-3.471 -4.275,0 -7.599,3.617 -7.599,8.989 -0.037,5.919 3.652,9.499 7.928,9.499 2.74,0 4.566,-1.279 5.334,-2.667 l 0.073,0 0,10.522 3.215,0 z" />
          </g>
          <g
             transform="translate(570.2266,390.5234)"
             id="g17883"
             style="fill:#666666;fill-opacity:1">
            <path
               inkscape:connector-curvature="0"
               id="path17885"
               style="fill:#666666;fill-opacity:1;fill-rule:nonzero;stroke:none"
               d="m 0,0 c 0,1.863 -0.073,3.325 -0.146,4.787 l 2.813,0 0.146,-2.85 0.11,0 c 0.986,1.68 2.63,3.251 5.59,3.251 2.374,0 4.202,-1.461 4.968,-3.543 l 0.074,0 c 0.548,1.023 1.279,1.753 2.009,2.301 1.059,0.804 2.192,1.242 3.873,1.242 2.375,0 5.846,-1.534 5.846,-7.671 l 0,-10.413 -3.142,0 0,10.01 c 0,3.435 -1.28,5.444 -3.836,5.444 -1.864,0 -3.252,-1.352 -3.836,-2.886 -0.147,-0.476 -0.257,-1.06 -0.257,-1.608 l 0,-10.96 -3.142,0 0,10.631 C 11.07,0.549 9.828,2.558 7.38,2.558 5.407,2.558 3.909,0.95 3.397,-0.657 3.215,-1.133 3.143,-1.681 3.143,-2.229 l 0,-10.667 -3.143,0 L 0,0 Z" />
          </g>
          <path
             inkscape:connector-curvature="0"
             id="path17887"
             style="fill:#666666;fill-opacity:1;fill-rule:nonzero;stroke:none"
             d="m 598.873,395.311 3.215,0 0,-17.684 -3.215,0 0,17.684 z m 1.534,2.995 c -1.169,0 -1.936,0.913 -1.936,1.973 0,1.132 0.803,2.009 2.009,2.009 1.169,0 1.973,-0.877 1.973,-2.009 0,-1.06 -0.767,-1.973 -2.01,-1.973 l -0.036,0 z" />
          <g
             transform="translate(605.5957,390.5234)"
             id="g17889"
             style="fill:#666666;fill-opacity:1">
            <path
               inkscape:connector-curvature="0"
               id="path17891"
               style="fill:#666666;fill-opacity:1;fill-rule:nonzero;stroke:none"
               d="m 0,0 c 0,1.863 -0.037,3.325 -0.146,4.787 l 2.849,0 0.183,-2.887 0.073,0 c 0.877,1.644 2.922,3.288 5.846,3.288 2.447,0 6.248,-1.461 6.248,-7.526 l 0,-10.558 -3.215,0 0,10.193 c 0,2.849 -1.061,5.261 -4.093,5.261 C 5.662,2.558 4.018,1.061 3.434,-0.73 3.287,-1.133 3.215,-1.717 3.215,-2.229 l 0,-10.667 -3.215,0 L 0,0 Z" />
          </g>
          <path
             inkscape:connector-curvature="0"
             id="path17893"
             style="fill:#666666;fill-opacity:1;fill-rule:nonzero;stroke:none"
             d="m 624.047,395.311 3.215,0 0,-17.684 -3.215,0 0,17.684 z m 1.535,2.995 c -1.17,0 -1.937,0.913 -1.937,1.973 0,1.132 0.804,2.009 2.009,2.009 1.17,0 1.973,-0.877 1.973,-2.009 0,-1.06 -0.768,-1.973 -2.009,-1.973 l -0.036,0 z" />
          <g
             transform="translate(630.3311,380.915)"
             id="g17895"
             style="fill:#666666;fill-opacity:1">
            <path
               inkscape:connector-curvature="0"
               id="path17897"
               style="fill:#666666;fill-opacity:1;fill-rule:nonzero;stroke:none"
               d="m 0,0 c 0.986,-0.584 2.667,-1.242 4.274,-1.242 2.302,0 3.399,1.133 3.399,2.631 0,1.534 -0.914,2.338 -3.252,3.215 -3.215,1.168 -4.713,2.922 -4.713,5.004 0,2.85 2.338,5.189 6.102,5.189 1.79,0 3.361,-0.476 4.31,-1.096 L 9.353,11.399 c -0.694,0.402 -1.973,1.023 -3.617,1.023 -1.899,0 -2.923,-1.097 -2.923,-2.411 0,-1.461 1.024,-2.119 3.325,-3.032 3.033,-1.133 4.64,-2.668 4.64,-5.298 0,-3.142 -2.448,-5.335 -6.576,-5.335 -1.937,0 -3.727,0.512 -4.969,1.243 L 0,0 Z" />
          </g>
          <g
             transform="translate(647.2842,399.5479)"
             id="g17899"
             style="fill:#666666;fill-opacity:1">
            <path
               inkscape:connector-curvature="0"
               id="path17901"
               style="fill:#666666;fill-opacity:1;fill-rule:nonzero;stroke:none"
               d="m 0,0 0,-4.237 4.604,0 0,-2.449 -4.604,0 0,-9.499 c 0,-2.192 0.622,-3.434 2.411,-3.434 0.877,0 1.389,0.073 1.863,0.219 l 0.147,-2.449 c -0.621,-0.218 -1.608,-0.438 -2.85,-0.438 -1.498,0 -2.704,0.513 -3.47,1.352 -0.877,0.987 -1.243,2.558 -1.243,4.64 l 0,9.609 -2.74,0 0,2.449 2.74,0 0,3.251 L 0,0 Z" />
          </g>
          <g
             transform="translate(653.6787,389.793)"
             id="g17903"
             style="fill:#666666;fill-opacity:1">
            <path
               inkscape:connector-curvature="0"
               id="path17905"
               style="fill:#666666;fill-opacity:1;fill-rule:nonzero;stroke:none"
               d="m 0,0 c 0,2.083 -0.036,3.873 -0.146,5.518 l 2.813,0 0.146,-3.472 0.11,0 C 3.728,4.421 5.7,5.919 7.854,5.919 8.185,5.919 8.44,5.882 8.731,5.846 l 0,-3.033 C 8.403,2.85 8.074,2.886 7.636,2.886 5.371,2.886 3.763,1.169 3.325,-1.205 3.252,-1.681 3.215,-2.191 3.215,-2.704 l 0,-9.462 -3.215,0 L 0,0 Z" />
          </g>
          <g
             transform="translate(672.9336,386.6514)"
             id="g17907"
             style="fill:#666666;fill-opacity:1">
            <path
               inkscape:connector-curvature="0"
               id="path17909"
               style="fill:#666666;fill-opacity:1;fill-rule:nonzero;stroke:none"
               d="m 0,0 c -3.508,0.073 -7.49,-0.549 -7.49,-3.982 0,-2.12 1.388,-3.07 2.996,-3.07 2.338,0 3.837,1.462 4.348,2.959 C -0.037,-3.764 0,-3.398 0,-3.069 L 0,0 Z m 3.143,-4.786 c 0,-1.534 0.072,-3.033 0.255,-4.238 l -2.886,0 -0.293,2.228 -0.11,0 c -0.949,-1.388 -2.885,-2.631 -5.406,-2.631 -3.581,0 -5.408,2.522 -5.408,5.079 0,4.275 3.8,6.613 10.632,6.577 l 0,0.365 c 0,1.461 -0.402,4.128 -4.019,4.092 -1.68,0 -3.398,-0.475 -4.64,-1.315 l -0.731,2.155 c 1.461,0.913 3.617,1.535 5.846,1.535 5.443,0 6.76,-3.69 6.76,-7.235 l 0,-6.612 z" />
          </g>
          <g
             transform="translate(692.0059,378.2842)"
             id="g17911"
             style="fill:#666666;fill-opacity:1">
            <path
               inkscape:connector-curvature="0"
               id="path17913"
               style="fill:#666666;fill-opacity:1;fill-rule:nonzero;stroke:none"
               d="m 0,0 c -0.73,-0.401 -2.41,-0.986 -4.604,-1.023 l -0.913,-1.461 c 1.353,-0.256 2.558,-1.169 2.558,-2.667 0,-2.193 -1.826,-3.033 -3.8,-3.033 -0.84,0 -1.863,0.219 -2.557,0.622 l 0.548,1.644 c 0.548,-0.329 1.279,-0.512 2.009,-0.512 0.841,0 1.572,0.292 1.572,1.169 -0.038,0.949 -1.133,1.352 -2.85,1.534 l 1.534,2.814 c -4.493,0.548 -7.38,4.018 -7.38,8.915 0,5.443 3.727,9.426 9.499,9.426 1.9,0 3.581,-0.476 4.457,-0.95 l -0.73,-2.448 c -0.767,0.402 -1.973,0.84 -3.727,0.84 -4.055,0 -6.247,-3.032 -6.247,-6.723 0,-4.091 2.631,-6.613 6.138,-6.613 1.827,0 3.069,0.476 3.946,0.841 L 0,0 Z" />
          </g>
          <g
             transform="translate(703.2227,386.6514)"
             id="g17915"
             style="fill:#666666;fill-opacity:1">
            <path
               inkscape:connector-curvature="0"
               id="path17917"
               style="fill:#666666;fill-opacity:1;fill-rule:nonzero;stroke:none"
               d="m 0,0 c -3.507,0.073 -7.489,-0.549 -7.489,-3.982 0,-2.12 1.388,-3.07 2.996,-3.07 2.339,0 3.836,1.462 4.347,2.959 C -0.035,-3.764 0,-3.398 0,-3.069 L 0,0 Z m -7.781,11.691 c -0.073,2.375 0.914,3.8 2.484,3.8 0.804,0 1.424,-0.366 2.266,-0.804 0.584,-0.329 1.095,-0.621 1.57,-0.621 0.549,0 0.914,0.329 0.986,1.535 l 1.717,0 C 1.279,13.189 0.476,11.91 -1.241,11.91 c -0.804,0 -1.499,0.365 -2.266,0.768 -0.73,0.438 -1.133,0.657 -1.571,0.657 -0.584,0 -0.877,-0.621 -0.949,-1.644 l -1.754,0 z M 3.143,-4.786 c 0,-1.534 0.073,-3.033 0.255,-4.238 l -2.886,0 -0.292,2.228 -0.111,0 c -0.949,-1.388 -2.884,-2.631 -5.406,-2.631 -3.58,0 -5.408,2.522 -5.408,5.079 0,4.275 3.801,6.613 10.633,6.577 l 0,0.365 c 0,1.461 -0.403,4.128 -4.02,4.092 -1.679,0 -3.397,-0.475 -4.638,-1.315 l -0.732,2.155 c 1.462,0.913 3.616,1.535 5.846,1.535 5.444,0 6.759,-3.69 6.759,-7.235 l 0,-6.612 z" />
          </g>
          <g
             transform="translate(717.0352,379.6367)"
             id="g17919"
             style="fill:#666666;fill-opacity:1">
            <path
               inkscape:connector-curvature="0"
               id="path17921"
               style="fill:#666666;fill-opacity:1;fill-rule:nonzero;stroke:none"
               d="m 0,0 c 3.068,0 5.371,2.886 5.371,6.904 0,2.996 -1.498,6.76 -5.299,6.76 -3.762,0 -5.406,-3.508 -5.406,-6.869 C -5.334,2.922 -3.143,0 -0.037,0 L 0,0 Z m -0.146,-2.412 c -4.75,0 -8.477,3.508 -8.477,9.098 0,5.918 3.91,9.389 8.769,9.389 5.079,0 8.512,-3.689 8.512,-9.06 0,-6.578 -4.566,-9.427 -8.767,-9.427 l -0.037,0 z" />
          </g>
          <g
             transform="translate(737.0576,384.8242)"
             id="g17923"
             style="fill:#666666;fill-opacity:1">
            <path
               inkscape:connector-curvature="0"
               id="path17925"
               style="fill:#666666;fill-opacity:1;fill-rule:nonzero;stroke:none"
               d="m 0,0 c 0,-0.438 0.036,-0.913 0.146,-1.315 0.548,-2.229 2.521,-3.763 4.787,-3.763 3.396,0 5.37,2.776 5.37,6.832 0,3.544 -1.827,6.576 -5.225,6.576 C 2.886,8.33 0.804,6.796 0.183,4.348 0.109,3.946 0,3.471 0,3.069 L 0,0 Z m -3.216,4.713 c 0,2.266 -0.036,4.092 -0.145,5.773 l 2.885,0 0.183,-3.033 0.073,0 c 1.28,2.193 3.399,3.435 6.248,3.435 4.311,0 7.527,-3.617 7.527,-8.988 0,-6.357 -3.909,-9.5 -8.038,-9.5 -2.375,0 -4.384,1.024 -5.444,2.778 l -0.073,0 0,-9.61 -3.216,0 0,19.145 z" />
          </g>
          <g
             transform="translate(765.4102,402.9453)"
             id="g17927"
             style="fill:#666666;fill-opacity:1">
            <path
               inkscape:connector-curvature="0"
               id="path17929"
               style="fill:#666666;fill-opacity:1;fill-rule:nonzero;stroke:none"
               d="m 0,0 -4.458,-5.224 -2.265,0 L -3.508,0 0,0 Z m 2.191,-20.459 c 0,-1.863 0.038,-3.471 0.147,-4.859 l -2.85,0 -0.183,2.885 -0.073,0 c -0.803,-1.424 -2.704,-3.288 -5.845,-3.288 -2.778,0 -6.102,1.572 -6.102,7.745 l 0,10.341 3.215,0 0,-9.756 c 0,-3.36 1.06,-5.662 3.946,-5.662 2.156,0 3.654,1.497 4.239,2.959 0.182,0.439 0.292,1.023 0.292,1.644 l 0,10.815 3.214,0 0,-12.824 z" />
          </g>
          <g
             transform="translate(774.3252,384.7148)"
             id="g17931"
             style="fill:#666666;fill-opacity:1">
            <path
               inkscape:connector-curvature="0"
               id="path17933"
               style="fill:#666666;fill-opacity:1;fill-rule:nonzero;stroke:none"
               d="m 0,0 c 0,-0.401 0.036,-0.804 0.11,-1.17 0.62,-2.227 2.52,-3.763 4.823,-3.763 3.398,0 5.371,2.741 5.371,6.796 0,3.581 -1.828,6.614 -5.262,6.614 C 2.85,8.477 0.804,6.941 0.183,4.53 0.073,4.128 0,3.689 0,3.179 L 0,0 Z m -3.216,18.853 3.216,0 0,-11.071 0.073,0 c 1.133,1.973 3.179,3.215 6.029,3.215 4.383,0 7.453,-3.653 7.453,-8.987 0,-6.358 -4.019,-9.5 -7.965,-9.5 -2.558,0 -4.567,0.986 -5.919,3.325 l -0.072,0 -0.184,-2.923 -2.775,0 c 0.109,1.205 0.144,2.996 0.144,4.567 l 0,21.374 z" />
          </g>
          <path
             inkscape:connector-curvature="0"
             id="path17935"
             style="fill:#666666;fill-opacity:1;fill-rule:nonzero;stroke:none"
             d="m 790.072,403.567 3.216,0 0,-25.94 -3.216,0 0,25.94 z" />
          <path
             inkscape:connector-curvature="0"
             id="path17937"
             style="fill:#666666;fill-opacity:1;fill-rule:nonzero;stroke:none"
             d="m 796.869,395.311 3.215,0 0,-17.684 -3.215,0 0,17.684 z m 1.534,2.995 c -1.169,0 -1.936,0.913 -1.936,1.973 0,1.132 0.804,2.009 2.01,2.009 1.168,0 1.972,-0.877 1.972,-2.009 0,-1.06 -0.767,-1.973 -2.01,-1.973 l -0.036,0 z" />
          <g
             transform="translate(816.1973,378.2842)"
             id="g17939"
             style="fill:#666666;fill-opacity:1">
            <path
               inkscape:connector-curvature="0"
               id="path17941"
               style="fill:#666666;fill-opacity:1;fill-rule:nonzero;stroke:none"
               d="m 0,0 c -0.841,-0.401 -2.704,-1.023 -5.078,-1.023 -5.335,0 -8.806,3.618 -8.806,9.025 0,5.443 3.727,9.426 9.499,9.426 1.901,0 3.58,-0.476 4.457,-0.95 l -0.73,-2.448 c -0.768,0.402 -1.973,0.84 -3.727,0.84 -4.055,0 -6.248,-3.032 -6.248,-6.685 0,-4.093 2.631,-6.614 6.139,-6.614 1.826,0 3.032,0.439 3.945,0.84 L 0,0 Z" />
          </g>
          <g
             transform="translate(827.4512,386.6514)"
             id="g17943"
             style="fill:#666666;fill-opacity:1">
            <path
               inkscape:connector-curvature="0"
               id="path17945"
               style="fill:#666666;fill-opacity:1;fill-rule:nonzero;stroke:none"
               d="m 0,0 c -3.508,0.073 -7.49,-0.549 -7.49,-3.982 0,-2.12 1.388,-3.07 2.996,-3.07 2.338,0 3.836,1.462 4.348,2.959 C -0.037,-3.764 0,-3.398 0,-3.069 L 0,0 Z m 3.142,-4.786 c 0,-1.534 0.073,-3.033 0.255,-4.238 l -2.886,0 -0.292,2.228 -0.11,0 c -0.95,-1.388 -2.886,-2.631 -5.407,-2.631 -3.581,0 -5.407,2.522 -5.407,5.079 0,4.275 3.799,6.613 10.631,6.577 l 0,0.365 c 0,1.461 -0.402,4.128 -4.018,4.092 -1.681,0 -3.398,-0.475 -4.64,-1.315 l -0.731,2.155 c 1.461,0.913 3.617,1.535 5.846,1.535 5.443,0 6.759,-3.69 6.759,-7.235 l 0,-6.612 z" />
          </g>
          <g
             transform="translate(705.6709,433.2539)"
             id="g17947"
             style="fill:#666666;fill-opacity:1">
            <path
               inkscape:connector-curvature="0"
               id="path17949"
               style="fill:#666666;fill-opacity:1;fill-rule:nonzero;stroke:none"
               d="m 0,0 0,0.877 c 0,2.812 1.023,5.188 4.421,5.188 0.041,0 0.078,-0.003 0.119,-0.004 l 0,2.597 C -0.411,8.646 -3.179,5.617 -3.179,0.986 l 0,-0.986 -2.447,0 0,-2.448 2.447,0 0,-15.236 3.216,0 0,15.236 4.503,0 L 4.54,0 0,0 Z" />
          </g>
          <path
             inkscape:connector-curvature="0"
             id="path17951"
             style="fill:#666666;fill-opacity:1;fill-rule:nonzero;stroke:none"
             d="m 715.975,433.254 -3.084,0 0,-17.684 3.084,0 0,17.684 z" />
          <g
             transform="translate(714.377,436.249)"
             id="g17953"
             style="fill:#666666;fill-opacity:1">
            <path
               inkscape:connector-curvature="0"
               id="path17955"
               style="fill:#666666;fill-opacity:1;fill-rule:nonzero;stroke:none"
               d="m 0,0 c -1.169,0 -1.936,0.914 -1.936,1.974 0,1.131 0.803,2.008 2.01,2.008 1.168,0 1.973,-0.877 1.973,-2.008 C 2.047,0.914 1.279,0 0.037,0 L 0,0 Z" />
          </g>
        </g>
      </g>
    </g>
  </g>
</svg>
